<?xml version="1.0" encoding="UTF-8" standalone="no"?>
<svg
   xmlns:dc="http://purl.org/dc/elements/1.1/"
   xmlns:cc="http://creativecommons.org/ns#"
   xmlns:rdf="http://www.w3.org/1999/02/22-rdf-syntax-ns#"
   xmlns:svg="http://www.w3.org/2000/svg"
   xmlns="http://www.w3.org/2000/svg"
   xmlns:sodipodi="http://sodipodi.sourceforge.net/DTD/sodipodi-0.dtd"
   xmlns:inkscape="http://www.inkscape.org/namespaces/inkscape"
   version="1.1"
   id="Your_Icon"
   x="0px"
   y="0px"
   width="80"
   height="120"
   viewBox="5 -10 80 162"
   enable-background="new 0 0 100 100"
   xml:space="preserve"
   inkscape:version="0.48.4 r9939"
   sodipodi:docname="logo.svg"><metadata
     id="metadata3063"><rdf:RDF><cc:Work
         rdf:about=""><dc:format>image/svg+xml</dc:format><dc:type
           rdf:resource="http://purl.org/dc/dcmitype/StillImage" /></cc:Work></rdf:RDF></metadata><defs
     id="defs3061" /><sodipodi:namedview
     pagecolor="#ffffff"
     bordercolor="#666666"
     borderopacity="1"
     objecttolerance="10"
     gridtolerance="10"
     guidetolerance="10"
     inkscape:pageopacity="0"
     inkscape:pageshadow="2"
     inkscape:window-width="1600"
     inkscape:window-height="845"
     id="namedview3059"
     showgrid="false"
     fit-margin-top="0"
     fit-margin-left="0"
     fit-margin-right="0"
     fit-margin-bottom="0"
     inkscape:zoom="6.71"
     inkscape:cx="-5.170743"
     inkscape:cy="46.108632"
     inkscape:window-x="0"
     inkscape:window-y="30"
     inkscape:window-maximized="1"
     inkscape:current-layer="Your_Icon" /><g
     id="g3045"
     transform="translate(-42.088551,56.396493)"><g
       id="g3047"><g
         id="g3049" /></g><g
       id="g3051" /></g><path
     d="m 50.232,44.83701 c 5.194,0 9.419,-4.225997 9.419,-9.418997 0,-5.193002 -4.224,-9.418003 -9.419,-9.418003 -5.193,0 -9.418,4.225001 -9.418,9.418003 0,5.193 4.225,9.418997 9.418,9.418997 z m 0,-14.650999 c 2.886,0 5.232,2.347001 5.232,5.232002 0,2.886001 -2.347,5.233 -5.232,5.233 -2.885,0 -5.232,-2.346999 -5.232,-5.233 0,-2.885001 2.348,-5.232002 5.232,-5.232002 z m 12.559,23.022998 c -4.04,0 -7.326,3.286 -7.326,7.326 0,4.039 3.286,7.325 7.326,7.325 4.039,0 7.325,-3.286 7.325,-7.325 0,-4.039 -3.286,-7.326 -7.325,-7.326 z m 0,10.466 c -1.731,0 -3.14,-1.408 -3.14,-3.14 0,-1.732 1.408,-3.14 3.14,-3.14 1.73,0 3.14,1.408 3.14,3.14 0,1.732 -1.41,3.14 -3.14,3.14 z m -36.628,-8.373 h 4.186001 v 6.554 c -0.67,-0.173 -1.369,-0.275 -2.093,-0.275 -4.616001,0 -8.372001,3.756 -8.372001,8.372 0,4.617 3.756,8.372 8.372001,8.372 0.724,0 1.422,-0.102 2.093,-0.275 v 29.578001 c 0,4.62299 3.748999,8.37198 8.371999,8.37198 4.624,0 8.373,-3.74899 8.373,-8.37198 V 55.302009 h 4.186 v -6.279 H 26.163 v 6.279 z m 8.372,20.171 c 1.298,-1.476 2.093,-3.404 2.093,-5.52 0,-2.116 -0.795,-4.044 -2.093,-5.519 v -9.132 h 8.372 v 14.651 H 38.721 V 86.69701 c -2.311,0 -4.186,-1.875001 -4.186,-4.186001 v -7.038 z m -2.093,-5.52 c 0,2.309 -1.877999,4.187 -4.185999,4.187 -2.309001,0 -4.186001,-1.878 -4.186001,-4.187 0,-2.308 1.877,-4.186 4.186001,-4.186 2.308,0.001 4.185999,1.879 4.185999,4.186 z"
     id="path3053"
     inkscape:connector-curvature="0"
     style="fill:#352639;fill-opacity:1" /></svg>
