<?xml version="1.0" encoding="UTF-8" standalone="no"?>
<svg
   xmlns:dc="http://purl.org/dc/elements/1.1/"
   xmlns:cc="http://creativecommons.org/ns#"
   xmlns:rdf="http://www.w3.org/1999/02/22-rdf-syntax-ns#"
   xmlns:svg="http://www.w3.org/2000/svg"
   xmlns="http://www.w3.org/2000/svg"
   xmlns:sodipodi="http://sodipodi.sourceforge.net/DTD/sodipodi-0.dtd"
   xmlns:inkscape="http://www.inkscape.org/namespaces/inkscape"
   version="1.1"
   id="Your_Icon"
   x="0px"
   y="0px"
   width="80"
   height="120"
   viewBox="5 -10 80 162"
   enable-background="new 0 0 100 100"
   xml:space="preserve"
   inkscape:version="0.48.4 r9939"
   sodipodi:docname="logo-dd.svg"><metadata
     id="metadata3063"><rdf:RDF><cc:Work
         rdf:about=""><dc:format>image/svg+xml</dc:format><dc:type
           rdf:resource="http://purl.org/dc/dcmitype/StillImage" /><dc:title /></cc:Work></rdf:RDF></metadata><defs
     id="defs3061" /><sodipodi:namedview
     pagecolor="#ffffff"
     bordercolor="#666666"
     borderopacity="1"
     objecttolerance="10"
     gridtolerance="10"
     guidetolerance="10"
     inkscape:pageopacity="0"
     inkscape:pageshadow="2"
     inkscape:window-width="1600"
     inkscape:window-height="845"
     id="namedview3059"
     showgrid="false"
     fit-margin-top="0"
     fit-margin-left="0"
     fit-margin-right="0"
     fit-margin-bottom="0"
     inkscape:zoom="6.71"
     inkscape:cx="-2.6372118"
     inkscape:cy="34.186128"
     inkscape:window-x="0"
     inkscape:window-y="30"
     inkscape:window-maximized="1"
     inkscape:current-layer="Your_Icon" /><g
     id="g3045"
     transform="translate(-42.088551,56.396447)"><g
       id="g3047"><g
         id="g3049" /></g><g
       id="g3051" /></g><g
     transform="matrix(0.69330449,0,0,0.69330449,10.681428,36.334775)"
     id="Your_Icon-8"
     style="fill:#352639;fill-opacity:1"><g
       id="g6"
       style="fill:#352639;fill-opacity:1"><path
         inkscape:connector-curvature="0"
         d="m 89.5,9 h -60 C 26.739,9 24,11.239 24,14 V 32 H 10.5 C 7.739,32 5,34.238 5,37 V 74 C 5,82.815 10.435,89.401 17.828,90.375 18.546,90.773 19.622,91 20.5,91 H 79.331 C 88.404,91 94,84.168 94,74 V 14 C 94,11.239 92.262,9 89.5,9 z M 24,74 c 0,3.827 -1.851,6.5 -4.5,6.5 C 16.809,80.5 15,77.888 15,74 V 42 h 9 v 32 z m 60,0 c 0,4.645 -1.239,7 -4.669,7 H 33.227 C 34.048,78.896 34,76.532 34,74 V 19 h 50 v 55 z"
         id="path8"
         style="fill:#352639;fill-opacity:1" /><path
         inkscape:connector-curvature="0"
         d="m 48.5,37 h 24 c 2.762,0 5,-2.238 5,-5 0,-2.762 -2.238,-5 -5,-5 h -24 c -2.761,0 -5,2.238 -5,5 0,2.762 2.239,5 5,5 z"
         id="path10"
         style="fill:#352639;fill-opacity:1" /><path
         inkscape:connector-curvature="0"
         d="m 48.5,55 h 24 c 2.762,0 5,-2.238 5,-5 0,-2.762 -2.238,-5 -5,-5 h -24 c -2.761,0 -5,2.238 -5,5 0,2.762 2.239,5 5,5 z"
         id="path12"
         style="fill:#352639;fill-opacity:1" /><path
         inkscape:connector-curvature="0"
         d="m 48.5,73 h 24 c 2.762,0 5,-2.238 5,-5 0,-2.762 -2.238,-5 -5,-5 h -24 c -2.761,0 -5,2.238 -5,5 0,2.762 2.239,5 5,5 z"
         id="path14"
         style="fill:#352639;fill-opacity:1" /></g></g></svg>
